<?xml version="1.0" encoding="UTF-8"?>
<svg width="22px" height="22px" viewBox="0 0 22 22" version="1.1" xmlns="http://www.w3.org/2000/svg" xmlns:xlink="http://www.w3.org/1999/xlink">
    <!-- Generator: Sketch 55.2 (78181) - https://sketchapp.com -->
    <title>Group 8</title>
    <desc>Created with Sketch.</desc>
    <g id="Page-1" stroke="none" stroke-width="1" fill="none" fill-rule="evenodd">
        <g id="D02-Copy-5" transform="translate(-18.000000, -257.000000)" stroke="#11CA6D">
            <g id="Group-20" transform="translate(16.000000, 140.000000)">
                <g id="setting" transform="translate(0.884657, 88.000000)">
                    <g id="Group-18-Copy" transform="translate(1.115343, 29.000000)">
                        <g id="iconfinder_Settings_gear_setting_tools_392496-Copy">
                            <g id="Group-8" transform="translate(0.714286, 0.714286)">
                                <path d="M18.8571429,12.0017143 C18.5108571,12.0017143 18.198,12.21 18.0651429,12.5305714 L17.3725714,14.2002857 C17.2397143,14.5208571 17.3134286,14.8894286 17.5585714,15.1345714 C17.8825714,15.4585714 18.0608571,15.8888571 18.0608571,16.3465714 C18.0608571,16.8051429 17.8825714,17.2354286 17.5585714,17.5594286 C16.89,18.228 15.8005714,18.2262857 15.1337143,17.5594286 C14.8885714,17.3142857 14.52,17.2405714 14.1994286,17.3734286 L12.5288571,18.066 C12.2082857,18.1988571 12,18.5117143 12,18.858 C12,19.8034286 11.2311429,20.5722857 10.2857143,20.5722857 C9.34028571,20.5722857 8.57142857,19.8034286 8.57142857,18.858 C8.57142857,18.5117143 8.36228571,18.198 8.04257143,18.066 L6.37114286,17.3734286 C6.04971429,17.2405714 5.68285714,17.3142857 5.43685714,17.5594286 C4.78885714,18.2074286 3.66085714,18.2074286 3.01285714,17.5594286 C2.34428571,16.8908571 2.34428571,15.8031429 3.01285714,15.1345714 C3.258,14.8894286 3.33171429,14.5208571 3.19885714,14.2002857 L2.50628571,12.5305714 C2.37342857,12.21 2.06057143,12.0017143 1.71428571,12.0017143 C0.768857143,12.0017143 4.97379915e-14,11.2328571 4.97379915e-14,10.2865714 C4.97379915e-14,9.34114286 0.768857143,8.57228571 1.71428571,8.57228571 C2.06057143,8.57228571 2.37342857,8.36314286 2.50628571,8.04342857 L3.19885714,6.372 C3.33171429,6.05142857 3.258,5.68285714 3.01285714,5.43771429 C2.68885714,5.11371429 2.51057143,4.68342857 2.51057143,4.22571429 C2.51057143,3.768 2.68885714,3.33685714 3.01285714,3.01285714 C3.68142857,2.34428571 4.76914286,2.34428571 5.43771429,3.01285714 C5.68285714,3.258 6.05142857,3.33 6.372,3.19885714 L8.04257143,2.50628571 C8.36228571,2.37342857 8.57142857,2.06057143 8.57142857,1.71428571 C8.57142857,0.768857143 9.34028571,-1.04805054e-13 10.2857143,-1.04805054e-13 C11.2311429,-1.04805054e-13 12,0.768857143 12,1.71428571 C12,2.06057143 12.2091429,2.37342857 12.5288571,2.50628571 L14.2002857,3.19885714 C14.5208571,3.33085714 14.8894286,3.25885714 15.1345714,3.01285714 C15.7825714,2.36485714 16.9105714,2.36485714 17.5585714,3.01285714 C18.2262857,3.68142857 18.2262857,4.76914286 17.5585714,5.43771429 C17.3134286,5.68285714 17.2397143,6.05142857 17.3725714,6.372 L18.0651429,8.04342857 C18.1971429,8.36228571 18.5108571,8.57142857 18.8571429,8.57142857 C19.8025714,8.57142857 20.5714286,9.34028571 20.5714286,10.2857143 C20.5714286,11.232 19.8025714,12.0017143 18.8571429,12.0017143 Z" id="Shape" fill-rule="nonzero"></path>
                                <circle id="Oval" cx="10.2857143" cy="10.2857143" r="4"></circle>
                            </g>
                        </g>
                    </g>
                </g>
            </g>
        </g>
    </g>
</svg>