<?xml version="1.0" encoding="UTF-8"?>
<svg width="22px" height="22px" viewBox="0 0 22 22" version="1.1" xmlns="http://www.w3.org/2000/svg" xmlns:xlink="http://www.w3.org/1999/xlink">
    <!-- Generator: Sketch 55.2 (78181) - https://sketchapp.com -->
    <title>iconfinder_Settings_gear_setting_tools_392496 Copy</title>
    <desc>Created with Sketch.</desc>
    <g id="Page-1" stroke="none" stroke-width="1" fill="none" fill-rule="evenodd">
        <g id="D02-Copy-2" transform="translate(-17.000000, -228.000000)" stroke="#B6BEC1">
            <g id="Group-20" transform="translate(16.000000, 140.000000)">
                <g id="setting" transform="translate(0.884657, 88.000000)">
                    <g id="Group-18">
                        <g id="iconfinder_Settings_gear_setting_tools_392496-Copy">
                            <path d="M19.5714286,12.716 C19.2251429,12.716 18.9122857,12.9242857 18.7794286,13.2448571 L18.0868571,14.9145714 C17.954,15.2351429 18.0277143,15.6037143 18.2728571,15.8488571 C18.5968571,16.1728571 18.7751429,16.6031429 18.7751429,17.0608571 C18.7751429,17.5194286 18.5968571,17.9497143 18.2728571,18.2737143 C17.6042857,18.9422857 16.5148571,18.9405714 15.848,18.2737143 C15.6028571,18.0285714 15.2342857,17.9548571 14.9137143,18.0877143 L13.2431429,18.7802857 C12.9225714,18.9131429 12.7142857,19.226 12.7142857,19.5722857 C12.7142857,20.5177143 11.9454286,21.2865714 11,21.2865714 C10.0545714,21.2865714 9.28571429,20.5177143 9.28571429,19.5722857 C9.28571429,19.226 9.07657143,18.9122857 8.75685714,18.7802857 L7.08542857,18.0877143 C6.764,17.9548571 6.39714286,18.0285714 6.15114286,18.2737143 C5.50314286,18.9217143 4.37514286,18.9217143 3.72714286,18.2737143 C3.05857143,17.6051429 3.05857143,16.5174286 3.72714286,15.8488571 C3.97228571,15.6037143 4.046,15.2351429 3.91314286,14.9145714 L3.22057143,13.2448571 C3.08771429,12.9242857 2.77485714,12.716 2.42857143,12.716 C1.48314286,12.716 0.714285714,11.9471429 0.714285714,11.0008571 C0.714285714,11.0008571 0.714285714,11.0008571 0.714285714,11.0008571 C0.714285714,11.0008571 0.714285714,11.0008571 0.714285714,11.0008571 C0.714285714,10.0554286 1.48314286,9.28657143 2.42857143,9.28657143 C2.77485714,9.28657143 3.08771429,9.07742857 3.22057143,8.75771429 L3.91314286,7.08628571 C4.046,6.76571429 3.97228571,6.39714286 3.72714286,6.152 C3.40314286,5.828 3.22485714,5.39771429 3.22485714,4.94 C3.22485714,4.48228571 3.40314286,4.05114286 3.72714286,3.72714286 C4.39571429,3.05857143 5.48342857,3.05857143 6.152,3.72714286 C6.39714286,3.97228571 6.76571429,4.04428571 7.08628571,3.91314286 L8.75685714,3.22057143 C9.07657143,3.08771429 9.28571429,2.77485714 9.28571429,2.42857143 C9.28571429,1.48314286 10.0545714,0.714285714 11,0.714285714 C11.9454286,0.714285714 12.7142857,1.48314286 12.7142857,2.42857143 C12.7142857,2.77485714 12.9234286,3.08771429 13.2431429,3.22057143 L14.9145714,3.91314286 C15.2351429,4.04514286 15.6037143,3.97314286 15.8488571,3.72714286 C16.4968571,3.07914286 17.6248571,3.07914286 18.2728571,3.72714286 C18.9405714,4.39571429 18.9405714,5.48342857 18.2728571,6.152 C18.0277143,6.39714286 17.954,6.76571429 18.0868571,7.08628571 L18.7794286,8.75771429 C18.9114286,9.07657143 19.2251429,9.28571429 19.5714286,9.28571429 C20.5168571,9.28571429 21.2857143,10.0545714 21.2857143,11 C21.2857143,11 21.2857143,11 21.2857143,11 C21.2857143,11 21.2857143,11 21.2857143,11 C21.2857143,11.9462857 20.5168571,12.716 19.5714286,12.716 Z" id="Shape" fill-rule="nonzero"></path>
                            <circle id="Oval" cx="11" cy="11" r="4"></circle>
                        </g>
                    </g>
                </g>
            </g>
        </g>
    </g>
</svg>